<svg version="1.1" id="Layer_1" xmlns="http://www.w3.org/2000/svg" xmlns:xlink="http://www.w3.org/1999/xlink" x="0px" y="0px" width="200px" height="200px" viewBox="0 0 1258.2 200"  xml:space="preserve">

<style type="text/css">
	.st0{clip-path:url(#SVGID_2_);}
	.st1{fill:#0C203C;;}
</style>
<title>wporg-logo</title>
<g>
	<g>
		<defs>
			<rect id="SVGID_1_" x="-101" y="-100" width="200" height="200"/>
		</defs>
		<clipPath id="SVGID_2_">
			<use xlink:href="#SVGID_1_" xmlns:xlink="http://www.w3.org/1999/xlink" style="overflow:visible;"/>
		</clipPath>
		<g class="st0">
			<g>
				<g>
					<g>
						<path class="st1" d="M100,6c18.8,0,37.1,5.6,52.6,16.1c15.1,10.2,27,24.6,34.1,41.4c12.4,29.3,9.1,62.8-8.7,89.1        c-10.2,15.1-24.6,27-41.4,34.1c-29.3,12.4-62.8,9.1-89.1-8.7c-15.1-10.2-27-24.6-34.1-41.4C1,107.3,4.3,73.8,22.1,47.5        c10.2-15.1,24.6-27,41.4-34.1C75,8.5,87.5,6,100,6 M100,0C44.8,0,0,44.8,0,100s44.8,100,100,100s100-44.8,100-100        S155.2,0,100,0"/>
						<path class="st1" d="M16.7,100c0,31.9,18.2,61.1,47,75L23.9,66.1C19.1,76.8,16.7,88.3,16.7,100 M156.3,95.8        c0-10.3-3.7-17.4-6.9-23s-8.2-12.7-8.2-19.5s5.8-14.8,14-14.8h1.1C122.4,7.4,69.7,9.7,38.6,43.7c-3,3.3-5.8,6.8-8.2,10.5h5.4        c8.7,0,22.2-1.1,22.2-1.1c4.5-0.3,5,6.3,0.5,6.9c0,0-4.5,0.5-9.5,0.8l30.3,90.3l18.2-54.7l-13-35.6C80,60.5,75.8,60,75.8,60        c-4.5-0.3-4-7.1,0.5-6.9c0,0,13.8,1.1,21.9,1.1s22.2-1.1,22.2-1.1c4.5-0.3,5,6.3,0.5,6.9c0,0-4.5,0.5-9.5,0.8l30.1,89.6        l8.6-27.2c3.8-11.9,6.1-20.3,6.1-27.5 M101.4,107.2l-25,72.7c16.8,4.9,34.7,4.5,51.2-1.3l-0.6-1.1L101.4,107.2z M173.1,60        c0.4,2.8,0.6,5.7,0.6,8.6c0,8.5-1.6,18-6.3,29.8L141.9,172C180.9,149.3,194.8,99.6,173.1,60"/>
					</g>
				</g>
			</g>
		</g>
	</g>
</g>
</svg>
